<?xml version="1.0" encoding="utf-8"?>
<!-- Generator: Adobe Illustrator 22.0.1, SVG Export Plug-In . SVG Version: 6.00 Build 0)  -->
<svg version="1.1" id="Layer_1" xmlns="http://www.w3.org/2000/svg" xmlns:xlink="http://www.w3.org/1999/xlink" x="0px" y="0px"
	 viewBox="0 0 100 100" style="enable-background:new 0 0 100 100;" xml:space="preserve">
<style type="text/css">
	.st0{opacity:0.1;fill:#F3864E;enable-background:new    ;}
	.st1{fill:#F3864E;}
</style>
<path id="_x33_" class="st0" d="M77.1,5.7c0,0,4.3-5.7,7.1-1.4c0,0,14.3,10,15.7,32.8c0,0,2.9,52.8-55.7,62.8
	c0,0-38.6,2.9-44.3-38.6c0,0-1.4-27.1,22.8-28.6c0,0,20,5.7,25.7,1.4C48.6,34.3,64.3,31.4,77.1,5.7z"/>
<g>
	<path class="st1" d="M25.8,62.6h3.9v3.9h1.9v-9.7c0-2.1-1.7-3.9-3.9-3.9s-3.9,1.7-3.9,3.9v9.7h1.9V62.6z M27.7,54.8
		c1.1,0,1.9,0.9,1.9,1.9v3.9h-3.9v-3.9C25.8,55.7,26.7,54.8,27.7,54.8z"/>
	<path class="st1" d="M35.5,60.6h1.9c2.1,0,3.9-1.7,3.9-3.9c0-2.1-1.7-3.9-3.9-3.9h-3.9v13.5h1.9V60.6z M35.5,54.8h1.9
		c1.1,0,1.9,0.9,1.9,1.9s-0.9,1.9-1.9,1.9h-1.9V54.8z"/>
	<path class="st1" d="M42.3,54.8h1.9v9.7h-1.9v1.9h5.8v-1.9h-1.9v-9.7h1.9v-1.9h-5.8V54.8z"/>
	<path class="st1" d="M31.6,43.2h1.9v1.9h-1.9V43.2z"/>
	<path class="st1" d="M27.7,43.2h1.9v1.9h-1.9V43.2z"/>
	<path class="st1" d="M23.9,43.2h1.9v1.9h-1.9V43.2z"/>
	<path class="st1" d="M51,64.5h15.5V49H51V64.5z M52.9,51h11.6v11.6H52.9V51z"/>
	<path class="st1" d="M64.5,70.3h1.9v1.9h-1.9V70.3z"/>
	<path class="st1" d="M51,70.3h11.6v1.9H51V70.3z"/>
	<path class="st1" d="M51,66.5h15.5v1.9H51V66.5z"/>
	<path class="st1" d="M51,74.2h15.5v1.9H51V74.2z"/>
	<path class="st1" d="M31.6,70.3h-5.8c-1.1,0-1.9,0.9-1.9,1.9v1.9c0,1.1,0.9,1.9,1.9,1.9h5.8c1.1,0,1.9-0.9,1.9-1.9v-1.9
		C33.5,71.2,32.7,70.3,31.6,70.3z M25.8,74.2v-1.9h5.8l0,1.9H25.8z"/>
	<path class="st1" d="M43.2,70.3h-5.8c-1.1,0-1.9,0.9-1.9,1.9v1.9c0,1.1,0.9,1.9,1.9,1.9h5.8c1.1,0,1.9-0.9,1.9-1.9v-1.9
		C45.2,71.2,44.3,70.3,43.2,70.3z M37.4,74.2v-1.9h5.8l0,1.9H37.4z"/>
	<path class="st1" d="M80,34.5c0-8-6.5-14.5-14.5-14.5c-5.6,0-10.4,3.1-12.8,7.7h-8.1l-1.9-1.9h-7.4c-0.4-1.1-1.5-1.9-2.7-1.9
		c-1.6,0-2.9,1.3-2.9,2.9c0,1.6,1.3,2.9,2.9,2.9c1.3,0,2.3-0.8,2.7-1.9h6.6l1.9,1.9h8c-0.5,1.5-0.8,3.1-0.8,4.8c0,0.3,0,0.6,0.1,1
		h-2.6l-1.9-1.9h-7.4c-0.4-1.1-1.5-1.9-2.7-1.9c-1.6,0-2.9,1.3-2.9,2.9s1.3,2.9,2.9,2.9c1.3,0,2.3-0.8,2.7-1.9h6.6l1.9,1.9h3.6
		c0.1,0.7,0.3,1.3,0.5,1.9H22.9c-1.6,0-2.9,1.3-2.9,2.9v34.8c0,1.6,1.3,2.9,2.9,2.9h44.5c1.6,0,2.9-1.3,2.9-2.9V48.2
		C76.1,46.2,80,40.6,80,34.5z M32.6,27.7c-0.5,0-1-0.4-1-1c0-0.5,0.4-1,1-1c0.5,0,1,0.4,1,1C33.5,27.3,33.1,27.7,32.6,27.7z
		 M36.5,35.5c-0.5,0-1-0.4-1-1s0.4-1,1-1s1,0.4,1,1S37,35.5,36.5,35.5z M61,39.4c-0.2-1.2-0.3-2.5-0.4-3.9h9.6
		c-0.1,1.8-0.2,3.5-0.6,5c-0.5-0.7-1.4-1.1-2.3-1.1H61z M53,33.5c0.2-2.1,0.9-4.1,1.9-5.8h4.5c-0.4,1.7-0.7,3.7-0.7,5.8H53z
		 M61.5,27.7h8.1c0.4,1.7,0.7,3.6,0.8,5.8h-9.6C60.7,31.4,61,29.4,61.5,27.7z M65.5,21.9c1.2,0,2.5,1.4,3.4,3.9h-6.8
		C63,23.4,64.3,21.9,65.5,21.9z M78,33.5h-5.8c-0.1-2.1-0.3-4.1-0.7-5.8h4.5C77.2,29.4,77.9,31.4,78,33.5L78,33.5z M72.2,35.5H78
		c-0.2,2.1-0.9,4.1-2,5.8h-4.6C71.9,39.5,72.2,37.5,72.2,35.5z M74.5,25.8H71c-0.4-1.3-0.9-2.3-1.5-3.2
		C71.4,23.2,73.1,24.3,74.5,25.8z M61.5,22.6c-0.6,0.9-1.1,2-1.5,3.2h-3.6C57.8,24.3,59.6,23.2,61.5,22.6z M53,35.5h5.8
		c0,1.3,0.2,2.6,0.4,3.9h-5.2C53.4,38.1,53.1,36.8,53,35.5L53,35.5z M22.9,41.3h44.5c0.5,0,1,0.4,1,1v2.9H37l-1.9,1.9H21.9v-4.8
		C21.9,41.7,22.4,41.3,22.9,41.3L22.9,41.3z M67.4,78.1H22.9c-0.5,0-1-0.4-1-1V49h13.9l1.9-1.9h30.6v30C68.4,77.6,68,78.1,67.4,78.1
		z M70.3,46.1v-2.9h4.2C73.3,44.5,71.9,45.4,70.3,46.1z"/>
	<path class="st1" d="M62.6,29.7h1.9v1.9h-1.9V29.7z"/>
	<path class="st1" d="M66.5,29.7h1.9v1.9h-1.9V29.7z"/>
</g>
</svg>
